# xmcd
#
# Track frame offsets: 
#        150
#        16291
#        36328
#        53630
#        69878
#        87752
#        105516
#        118462
#        135648
#        151596
#
# Disc length: 2244 seconds
#
# Revision: 0
# Processed by: cddbd v1.5.2PL0 Copyright (c) Steve Scherf et al.
# Submitted via: ExactAudioCopy v0.90b4
#
DISCID=7608c20a
DTITLE=Kelly Prescott - I Leave You Dreaming
DYEAR=2011
DGENRE=Pop
TTITLE0=Thicker SKin
TTITLE1=I Leave You Dreaming
TTITLE2=Jonesin'
TTITLE3=Coming Home TYo You
TTITLE4=Pulling On Your Line
TTITLE5=Need Your Love
TTITLE6=Busy Line
TTITLE7=Houseshoes
TTITLE8=Bottle Of Wine
TTITLE9=Dark Cloud
EXTD=
EXTT0=
EXTT1=
EXTT2=
EXTT3=
EXTT4=
EXTT5=
EXTT6=
EXTT7=
EXTT8=
EXTT9=
PLAYORDER=
